<?xml version="1.0" standalone="no"?>
<!DOCTYPE svg PUBLIC "-//W3C//DTD SVG 20010904//EN"
 "http://www.w3.org/TR/2001/REC-SVG-20010904/DTD/svg10.dtd">
<svg version="1.0" xmlns="http://www.w3.org/2000/svg"
 width="250.000000pt" height="188.000000pt" viewBox="0 0 250.000000 188.000000"
 preserveAspectRatio="xMidYMid meet">

<g transform="translate(0.000000,188.000000) scale(0.100000,-0.100000)"
fill="#000000" stroke="none">
<path d="M55 1865 c-3 -8 -7 -21 -9 -29 -3 -8 2 -20 10 -27 13 -11 20 -7 45
19 17 18 39 32 49 32 10 0 22 5 25 10 4 6 -17 10 -55 10 -45 0 -62 -4 -65 -15z"/>
<path d="M1908 1868 c9 -9 15 -9 24 0 9 9 7 12 -12 12 -19 0 -21 -3 -12 -12z"/>
<path d="M275 1830 c-10 -17 6 -51 22 -48 26 5 41 37 23 48 -20 13 -37 13 -45
0z"/>
<path d="M1595 1784 c-22 -11 -44 -14 -82 -9 -49 6 -53 5 -53 -14 0 -11 8 -25
18 -30 10 -5 24 -21 32 -35 8 -16 22 -26 36 -26 22 0 54 23 54 40 0 5 14 22
31 39 45 46 24 67 -36 35z"/>
<path d="M1163 1764 c-7 -19 4 -31 38 -39 34 -8 46 10 23 36 -21 23 -52 25
-61 3z"/>
<path d="M2278 1763 c-26 -6 -22 -19 12 -43 35 -25 83 -24 88 3 2 10 -3 17
-11 17 -8 0 -17 7 -21 15 -5 14 -32 18 -68 8z"/>
<path d="M1277 1706 c-3 -8 -3 -23 0 -35 5 -20 5 -20 23 1 19 24 16 48 -5 48
-7 0 -15 -6 -18 -14z"/>
<path d="M286 1691 c-3 -5 -21 -9 -40 -9 -19 0 -39 -3 -45 -7 -18 -11 -12 -32
10 -38 28 -7 109 28 109 48 0 16 -25 21 -34 6z"/>
<path d="M1279 1628 c-5 -16 -2 -71 3 -75 15 -9 8 -24 -17 -33 -25 -10 -35
-30 -14 -30 7 0 27 10 46 21 29 18 37 20 44 8 5 -8 7 -25 4 -39 -16 -67 -17
-80 -6 -80 7 0 9 -6 5 -12 -6 -10 -4 -10 7 0 18 17 39 15 63 -5 21 -18 21 -18
2 5 -11 12 -29 22 -40 22 -17 0 -18 2 -6 10 22 14 72 12 95 -4 11 -7 38 -16
60 -19 22 -4 56 -9 76 -13 46 -8 109 29 109 63 0 30 -16 37 -42 19 -29 -21
-58 -20 -73 1 -8 11 -27 17 -56 17 -49 1 -70 20 -79 71 -3 16 -10 29 -15 29
-6 -1 -26 -4 -46 -8 -31 -5 -41 -2 -70 24 -30 26 -47 36 -50 28z"/>
<path d="M913 1613 c-16 -6 -17 -39 -2 -48 5 -4 24 -1 40 5 23 10 33 10 42 1
19 -19 37 -12 37 13 0 18 -7 25 -31 30 -36 7 -68 7 -86 -1z"/>
<path d="M1656 1612 c-3 -5 0 -17 8 -27 16 -22 59 -12 54 13 -3 18 -52 29 -62
14z"/>
<path d="M40 1595 c0 -8 37 -43 59 -55 24 -12 29 3 8 24 -22 23 -67 43 -67 31z"/>
<path d="M596 1569 c-28 -4 -53 -6 -57 -4 -4 3 -12 -1 -18 -9 -14 -17 10 -46
39 -46 22 0 46 -35 30 -45 -21 -13 -9 -25 26 -25 26 0 43 -7 60 -25 14 -15 34
-25 52 -25 15 0 34 -6 41 -12 10 -11 12 -9 9 7 -2 11 -14 25 -28 32 -20 10
-21 13 -7 13 22 0 197 -59 214 -72 7 -6 14 -4 19 3 4 7 3 14 -3 16 -6 2 -48
22 -92 43 -82 40 -113 47 -43 11 20 -11 33 -20 29 -21 -5 0 -16 4 -26 10 -10
5 -30 11 -45 14 -44 8 -66 17 -66 27 0 5 -9 9 -19 9 -10 0 -21 7 -25 15 -7 19
-7 19 49 -5 65 -28 69 -25 10 8 -40 22 -49 32 -47 50 2 16 -4 25 -23 32 -14 6
-27 9 -28 9 -1 -1 -24 -5 -51 -10z"/>
<path d="M1850 1519 c1 -60 14 -91 46 -107 28 -13 32 -20 28 -39 -4 -16 -1
-25 11 -29 26 -10 37 9 25 41 -8 22 -8 35 1 53 17 30 4 50 -41 67 -19 7 -43
16 -52 20 -12 5 -18 3 -18 -6z"/>
<path d="M1080 1495 c0 -10 9 -14 25 -13 14 1 25 7 25 13 0 6 -11 12 -25 13
-16 1 -25 -3 -25 -13z"/>
<path d="M1245 1390 c-3 -6 1 -7 9 -4 18 7 21 14 7 14 -6 0 -13 -4 -16 -10z"/>
<path d="M1309 1343 c-1 -10 -1 -21 -1 -24 1 -3 -13 -3 -30 -1 -21 3 -29 1
-24 -7 4 -6 15 -11 25 -11 13 0 18 -8 18 -30 0 -16 -5 -30 -10 -30 -5 0 -4 -7
3 -15 7 -8 9 -15 5 -15 -4 0 0 -11 9 -25 22 -33 21 -36 -12 -33 -35 2 -53 -8
-45 -27 3 -8 0 -15 -7 -15 -19 0 -6 -22 19 -32 18 -6 24 -4 28 12 3 11 14 20
24 20 10 0 24 6 31 14 11 11 15 11 26 -3 11 -14 14 -14 28 7 9 12 24 22 34 22
10 0 23 7 31 16 11 14 10 15 -7 12 -11 -2 -18 2 -16 10 1 6 -3 12 -8 12 -5 0
-10 -4 -10 -10 0 -5 -7 -10 -16 -10 -11 0 -15 6 -11 20 3 11 1 23 -4 26 -5 3
-9 -2 -9 -11 0 -12 -5 -15 -16 -11 -9 3 -17 6 -20 6 -2 0 -1 6 2 14 7 19 -16
32 -27 15 -6 -9 -9 -1 -9 26 0 63 15 76 36 32 10 -21 23 -36 30 -33 7 3 15 2
17 -2 2 -4 2 -1 0 6 -1 7 4 24 13 38 18 27 8 33 -12 7 -10 -14 -17 -16 -31 -7
-10 6 -18 15 -18 20 -1 30 -34 46 -36 17z"/>
<path d="M110 1335 c0 -8 9 -15 20 -15 11 0 20 7 20 15 0 8 -9 15 -20 15 -11
0 -20 -7 -20 -15z"/>
<path d="M1000 1340 c8 -5 22 -10 30 -10 13 0 13 1 0 10 -8 5 -22 10 -30 10
-13 0 -13 -1 0 -10z"/>
<path d="M1070 1309 c0 -5 5 -7 10 -4 6 3 10 8 10 11 0 2 -4 4 -10 4 -5 0 -10
-5 -10 -11z"/>
<path d="M1157 1281 c-3 -12 -1 -24 4 -27 13 -8 24 25 12 37 -7 7 -12 3 -16
-10z"/>
<path d="M835 1280 c-3 -5 -1 -10 4 -10 6 0 11 5 11 10 0 6 -2 10 -4 10 -3 0
-8 -4 -11 -10z"/>
<path d="M1340 1261 c0 -5 5 -13 10 -16 6 -3 10 -2 10 4 0 5 -4 13 -10 16 -5
3 -10 2 -10 -4z"/>
<path d="M1241 1234 c0 -11 3 -14 6 -6 3 7 2 16 -1 19 -3 4 -6 -2 -5 -13z"/>
<path d="M1255 1210 c-3 -5 -1 -10 4 -10 6 0 11 5 11 10 0 6 -2 10 -4 10 -3 0
-8 -4 -11 -10z"/>
<path d="M0 1055 c0 -74 2 -135 5 -135 3 0 10 12 15 26 14 36 45 29 45 -11 0
-24 -5 -30 -32 -37 -30 -8 -33 -12 -33 -48 0 -21 5 -42 10 -45 6 -3 10 -22 10
-41 0 -34 1 -35 34 -29 40 8 57 -17 30 -46 -15 -17 -14 -21 16 -59 18 -22 45
-47 60 -55 16 -8 38 -28 50 -45 27 -38 58 -39 94 -1 29 31 60 32 71 3 4 -11
-4 -26 -24 -44 -17 -15 -31 -34 -31 -42 0 -8 -15 -17 -37 -21 -33 -6 -35 -8
-17 -15 27 -11 42 -32 26 -38 -19 -6 -14 -57 8 -77 11 -10 20 -24 20 -32 0 -7
8 -13 19 -13 10 0 30 -9 45 -21 15 -12 33 -18 44 -15 11 4 27 -2 40 -14 23
-22 63 -27 59 -8 -1 7 8 14 21 16 15 2 22 -2 22 -12 0 -10 6 -13 15 -10 20 8
19 -1 -2 -22 -17 -17 -17 -18 0 -11 10 4 24 7 32 7 7 0 15 9 18 20 5 18 8 19
32 8 22 -10 28 -10 35 3 6 10 21 14 42 13 31 -2 32 -2 13 12 -17 13 -18 16 -5
24 11 7 12 10 2 10 -9 0 -11 7 -7 19 7 22 -45 71 -76 71 -10 0 -19 5 -19 10 0
22 55 9 86 -21 37 -36 67 -37 34 -1 -13 13 -21 34 -20 50 3 42 -9 68 -36 81
-39 17 -69 13 -94 -14 -18 -19 -26 -22 -32 -13 -16 27 -7 47 29 65 l37 17 -32
13 c-18 7 -32 19 -32 26 0 12 -90 57 -115 57 -8 0 -17 5 -20 10 -3 6 -16 10
-28 10 -12 0 -40 11 -62 24 -33 21 -37 26 -22 32 10 3 45 3 78 0 60 -7 61 -7
54 16 -4 13 -14 31 -23 40 -8 10 -15 31 -16 48 -1 35 -15 38 -41 10 -10 -11
-27 -20 -38 -20 -15 0 -18 -5 -15 -25 3 -14 2 -25 -2 -25 -5 0 -17 -16 -29
-35 -21 -37 -51 -47 -51 -18 0 33 64 152 82 153 9 0 19 9 23 19 3 11 12 22 20
25 8 3 15 13 15 21 0 12 -8 16 -27 14 -55 -5 -143 61 -166 124 -7 18 -8 17
-33 -2 -26 -21 -54 -28 -54 -14 0 4 10 17 22 30 l21 23 -37 0 -38 0 17 26 c20
32 16 38 -19 24 -40 -15 -49 -13 -43 12 6 22 -16 58 -35 58 -4 0 -8 -61 -8
-135z m415 -295 c3 -5 1 -10 -4 -10 -6 0 -11 5 -11 10 0 6 2 10 4 10 3 0 8 -4
11 -10z m275 -335 c0 -8 -7 -15 -15 -15 -8 0 -15 7 -15 15 0 8 7 15 15 15 8 0
15 -7 15 -15z m-249 -17 c7 -13 30 -46 51 -75 29 -37 39 -60 36 -80 -3 -25 -7
-28 -38 -26 -46 2 -66 28 -45 60 20 29 11 47 -15 33 -25 -13 -42 -5 -57 27
-12 24 -10 30 14 55 32 34 39 35 54 6z m192 -50 c6 -21 -7 -48 -22 -48 -4 0
-15 6 -25 13 -15 11 -17 17 -7 35 15 29 47 28 54 0z m45 -74 c14 -10 21 -22
18 -31 -4 -11 -2 -13 9 -9 19 7 19 -4 -1 -29 -11 -14 -18 -16 -21 -8 -3 8 -14
11 -30 7 -29 -8 -43 7 -43 47 0 43 27 52 68 23z"/>
<path d="M1120 1181 c0 -5 9 -7 20 -4 11 3 20 7 20 9 0 2 -9 4 -20 4 -11 0
-20 -4 -20 -9z"/>
<path d="M1218 1168 c12 -12 24 -19 27 -16 8 7 -23 38 -38 38 -6 0 -2 -10 11
-22z"/>
<path d="M381 1154 c-12 -15 -21 -37 -19 -48 4 -27 59 -43 92 -28 18 8 28 7
42 -3 15 -11 16 -17 6 -39 -10 -23 -8 -29 19 -57 25 -26 34 -29 62 -24 49 11
61 24 41 46 -22 25 -14 47 9 24 17 -17 18 -16 15 8 -2 13 -10 32 -17 41 -7 9
-10 16 -5 17 5 1 20 2 34 2 19 2 25 7 25 26 0 13 -6 26 -12 29 -7 2 -13 -3
-13 -12 0 -22 -7 -20 -34 9 -26 28 -82 34 -132 15 -17 -7 -30 -7 -33 -1 -4 5
-18 12 -32 16 -21 5 -31 1 -48 -21z m159 -24 c0 -13 -5 -17 -20 -13 -19 5 -26
23 -14 36 11 11 34 -5 34 -23z"/>
<path d="M1480 1162 c0 -13 28 -42 41 -42 5 0 9 -3 9 -7 0 -15 -62 -12 -86 3
-22 15 -24 15 -24 0 0 -9 -6 -16 -12 -16 -9 0 -10 -2 -2 -8 7 -4 12 -19 12
-34 0 -15 13 -44 31 -67 18 -22 36 -54 41 -71 8 -27 6 -30 -13 -32 -12 0 -26
-2 -32 -3 -5 -2 -17 -3 -25 -4 -13 -1 -13 -2 0 -11 25 -16 5 -20 -24 -5 -29
15 -60 8 -69 -17 -3 -10 -11 -9 -34 4 -17 10 -33 15 -37 11 -3 -3 -6 1 -6 10
0 18 29 13 42 -7 5 -7 13 -5 25 8 14 14 14 17 3 14 -8 -3 -27 1 -41 8 -23 11
-29 11 -39 -1 -7 -8 -16 -13 -20 -10 -5 3 -11 1 -15 -4 -7 -12 -50 2 -50 15
-1 23 -17 34 -35 24 -15 -8 -20 -5 -29 22 -15 41 -14 48 5 48 8 0 13 4 9 9 -3
5 -1 12 5 16 5 3 10 14 10 23 0 14 -2 13 -13 -3 -9 -12 -19 -15 -28 -10 -8 5
-11 5 -7 0 4 -4 0 -14 -9 -23 -12 -13 -19 -13 -35 -3 -16 10 -19 10 -12 -1 4
-7 -2 -5 -13 5 -11 9 -23 14 -28 10 -4 -5 -5 -1 -3 7 3 8 10 14 16 13 6 -1 15
11 21 27 10 30 25 39 34 20 3 -6 4 -5 3 2 -1 7 8 23 21 36 36 36 27 45 -18 20
-46 -26 -95 -101 -105 -160 -4 -23 -12 -38 -20 -38 -18 0 -18 -26 0 -33 7 -3
17 -18 20 -34 4 -15 18 -45 32 -66 22 -33 23 -42 14 -75 -14 -51 -13 -67 3
-54 8 7 29 7 62 1 89 -16 100 -20 86 -29 -18 -10 -5 -30 20 -30 10 0 19 -4 19
-10 0 -5 -8 -7 -17 -3 -15 5 -16 3 -5 -8 6 -7 12 -21 12 -31 0 -14 -5 -17 -24
-12 -17 4 -27 0 -35 -13 -9 -16 -12 -16 -21 -3 -5 8 -10 11 -10 6 0 -5 8 -18
17 -28 12 -13 13 -22 6 -29 -8 -8 -13 -6 -17 7 -7 22 -53 47 -62 33 -3 -5 2
-9 10 -9 20 0 21 -14 2 -29 -15 -12 -30 -54 -16 -46 4 3 13 -2 20 -10 10 -12
10 -21 1 -42 -8 -18 -9 -29 -1 -37 7 -7 10 -5 10 6 0 10 12 19 30 23 17 4 36
15 43 26 13 20 43 25 67 9 12 -8 12 -10 -3 -16 -9 -3 -17 -13 -17 -20 0 -8
-16 -24 -35 -35 -19 -12 -32 -25 -29 -30 3 -5 0 -9 -5 -9 -6 0 -11 -4 -11 -9
0 -5 9 -7 19 -4 13 3 21 -2 26 -16 14 -45 98 -80 111 -46 4 8 10 12 15 9 5 -3
16 2 25 10 20 21 38 20 30 0 -3 -9 -6 -18 -6 -20 0 -2 -4 -4 -10 -4 -15 0 -60
-42 -60 -57 0 -14 -19 -17 -36 -5 -6 4 -14 20 -18 36 l-7 29 -22 -21 -21 -22
23 -22 c26 -24 64 -28 98 -10 14 8 23 8 25 1 2 -5 16 -11 32 -13 15 -2 31 -7
34 -13 11 -17 61 -29 63 -15 0 4 6 13 12 20 13 16 17 53 5 46 -4 -3 -15 -1
-24 4 -15 8 -15 10 0 15 9 4 16 15 16 24 0 10 7 29 16 41 15 22 15 24 -1 36
-15 11 -15 13 -1 25 9 8 16 21 16 30 1 15 2 15 13 0 11 -15 15 -15 32 -3 24
18 27 18 51 -4 27 -25 64 -34 71 -16 4 11 10 11 36 0 29 -12 103 -13 114 -2 3
2 -5 14 -16 25 -12 12 -21 26 -21 32 0 6 -7 9 -15 5 -9 -3 -15 0 -15 9 0 18
53 47 72 40 8 -3 14 2 15 14 2 21 -34 35 -61 25 -28 -11 -18 23 21 66 30 33
42 40 61 35 21 -5 23 -3 16 17 -4 13 -14 28 -23 35 -13 10 -17 7 -25 -17 -5
-17 -15 -28 -25 -28 -9 0 -25 -3 -35 -7 -14 -6 -17 -5 -12 3 4 7 14 12 22 12
16 0 19 36 4 45 -5 3 -10 -1 -10 -9 0 -9 -4 -16 -10 -16 -13 0 -4 118 10 136
10 11 10 17 0 29 -10 12 -9 21 3 48 12 25 14 46 8 92 -5 33 -6 65 -4 72 5 14
-16 57 -24 49 -3 -3 0 -12 7 -21 7 -9 11 -18 8 -20 -2 -3 -24 16 -48 41 l-44
46 44 -6 45 -6 -45 15 c-25 9 -67 23 -95 32 -27 9 -60 23 -72 31 -14 8 -23 10
-23 4z m121 -69 c13 -15 12 -15 -8 -4 -24 12 -29 21 -14 21 5 0 15 -7 22 -17z
m28 -73 c5 0 15 -8 22 -17 13 -15 12 -16 -11 -9 -14 4 -33 8 -42 9 -11 1 -14
5 -8 12 5 6 5 17 -2 25 -8 12 -9 12 -4 -2 3 -11 0 -18 -8 -18 -9 0 -13 9 -11
25 1 14 -1 25 -5 25 -4 0 -11 8 -14 18 -3 9 12 -2 34 -25 23 -24 45 -43 49
-43z m11 36 c0 -3 -4 -8 -10 -11 -5 -3 -10 -1 -10 4 0 6 5 11 10 11 6 0 10 -2
10 -4z m-120 -51 c0 -5 -5 -3 -10 5 -5 8 -10 20 -10 25 0 6 5 3 10 -5 5 -8 10
-19 10 -25z m170 -7 c0 -5 -11 -1 -25 8 -14 9 -22 20 -19 26 6 10 44 -19 44
-34z m-723 -10 c-3 -8 -6 -5 -6 6 -1 11 2 17 5 13 3 -3 4 -12 1 -19z m573 -18
c6 -11 8 -20 6 -20 -3 0 -10 9 -16 20 -6 11 -8 20 -6 20 3 0 10 -9 16 -20z
m167 -62 c-3 -8 -6 -5 -6 6 -1 11 2 17 5 13 3 -3 4 -12 1 -19z m-567 -17 c0
-6 -5 -13 -11 -17 -6 -3 -9 -17 -6 -30 2 -13 -4 -36 -14 -51 -12 -17 -19 -22
-19 -12 0 8 6 21 13 28 10 10 8 15 -6 25 -20 15 -12 50 9 42 8 -3 14 1 14 9 0
8 5 15 10 15 6 0 10 -4 10 -9z m384 -33 c16 -13 38 -30 50 -40 11 -9 18 -19
15 -22 -3 -4 -18 3 -32 15 -22 17 -27 18 -27 5 0 -23 -17 -20 -23 4 -3 11 -12
22 -21 25 -52 16 -52 17 -31 25 31 13 39 12 69 -12z m-289 -26 c-8 -8 -25 10
-25 26 0 13 2 13 14 -4 8 -10 13 -21 11 -22z m172 3 c8 -21 -1 -28 -26 -20
-12 4 -18 12 -14 21 7 19 32 18 40 -1z m-361 -60 c-21 -16 -32 -13 -21 4 3 6
14 11 23 11 15 -1 15 -2 -2 -15z m144 2 c0 -7 -6 -21 -13 -31 -13 -18 -14 -18
-21 -1 -6 18 9 45 25 45 5 0 9 -6 9 -13z m60 -7 c0 -5 -4 -10 -10 -10 -5 0
-10 5 -10 10 0 6 5 10 10 10 6 0 10 -4 10 -10z m224 -15 c8 -20 8 -19 19 3 11
25 27 29 27 8 0 -24 -31 -47 -58 -44 -32 4 -53 35 -32 48 20 13 34 8 44 -15z
m146 -36 c0 -6 -7 -6 -20 1 -11 6 -20 15 -20 21 0 6 7 6 20 -1 11 -6 20 -15
20 -21z m60 11 c11 -21 -2 -60 -19 -60 -12 0 -29 51 -24 68 7 19 31 14 43 -8z
m-434 -2 c4 -7 3 -8 -4 -4 -8 5 -12 0 -12 -13 0 -12 -4 -21 -9 -21 -4 0 -6 11
-3 25 5 27 16 32 28 13z m79 2 c3 -5 1 -10 -4 -10 -6 0 -11 5 -11 10 0 6 2 10
4 10 3 0 8 -4 11 -10z m-45 -35 c7 -9 8 -15 2 -15 -5 0 -12 7 -16 15 -3 8 -4
15 -2 15 2 0 9 -7 16 -15z m367 -35 c3 -11 9 -17 14 -14 14 8 35 -44 22 -57
-6 -6 -19 7 -37 41 -16 29 -22 50 -16 50 7 0 14 -9 17 -20z m-424 -125 c-3 -9
-8 -14 -10 -11 -3 3 -2 9 2 15 9 16 15 13 8 -4z m-120 -120 c-3 -9 -8 -14 -10
-11 -3 3 -2 9 2 15 9 16 15 13 8 -4z m307 -57 c0 -16 -3 -19 -11 -11 -6 6 -8
16 -5 22 11 17 16 13 16 -11z m-73 -4 c7 -19 23 -18 23 3 0 22 13 8 15 -17 1
-11 -4 -20 -11 -20 -6 0 -14 -9 -17 -20 -3 -13 -10 -18 -21 -14 -18 7 -22 24
-6 24 15 0 12 30 -4 36 -8 3 -26 -2 -41 -12 -29 -19 -36 -16 -29 12 4 15 14
20 45 21 27 1 42 -3 46 -13z m-107 -46 c0 -18 5 -20 36 -15 25 4 34 2 31 -6
-2 -7 -14 -13 -28 -15 -13 -2 -35 -8 -47 -15 -20 -9 -25 -9 -33 5 -6 10 -16
15 -25 11 -11 -4 -15 0 -12 13 8 50 78 69 78 22z m180 -43 c0 -8 -4 -15 -10
-15 -5 0 -10 7 -10 15 0 8 5 15 10 15 6 0 10 -7 10 -15z m10 -107 c0 -9 -23
-16 -37 -10 -22 8 -14 20 12 18 14 0 25 -4 25 -8z"/>
<path d="M1210 1137 c0 -9 -4 -17 -10 -17 -5 0 -10 -4 -10 -10 0 -5 6 -10 14
-10 18 0 30 30 16 44 -7 7 -10 5 -10 -7z"/>
<path d="M1070 1105 c-11 -13 -11 -18 0 -28 10 -10 11 -9 5 2 -6 10 -4 12 4 6
9 -5 10 -10 2 -18 -20 -20 -11 -31 9 -12 11 10 20 24 20 32 0 7 6 13 13 14 6
0 3 4 -8 9 -28 12 -31 12 -45 -5z"/>
<path d="M1133 1085 c-11 -25 -7 -65 7 -65 4 0 11 10 16 23 22 49 0 90 -23 42z"/>
<path d="M1978 1095 c-3 -3 5 -18 18 -32 31 -34 40 -26 11 11 -12 15 -25 25
-29 21z"/>
<path d="M1213 1058 c1 -25 6 -38 15 -38 7 0 10 5 7 11 -4 6 -11 23 -15 37 -8
24 -9 23 -7 -10z"/>
<path d="M2470 1084 c0 -3 7 -12 15 -20 13 -14 15 -13 15 5 0 12 -6 21 -15 21
-8 0 -15 -3 -15 -6z"/>
<path d="M1321 1057 c-5 -5 -7 -16 -4 -23 6 -16 -13 -19 -22 -4 -3 6 -11 10
-17 10 -7 0 -6 -5 1 -14 10 -11 8 -17 -6 -25 -10 -6 -13 -11 -7 -11 6 0 14 3
18 7 4 4 31 15 59 24 28 9 53 21 54 26 5 14 -64 22 -76 10z"/>
<path d="M1416 963 c6 -52 14 -54 14 -5 0 23 -4 42 -10 42 -5 0 -7 -17 -4 -37z"/>
<path d="M1161 977 c-1 -11 -6 -15 -13 -11 -7 5 -8 3 -3 -5 10 -16 29 2 22 21
-4 8 -6 7 -6 -5z"/>
<path d="M1306 982 c-2 -4 4 -8 14 -8 10 0 16 4 14 8 -3 4 -9 8 -14 8 -5 0
-11 -4 -14 -8z"/>
<path d="M1730 982 c0 -5 7 -13 16 -16 10 -4 14 -1 12 6 -5 15 -28 23 -28 10z"/>
<path d="M1370 946 c0 -22 27 -69 34 -58 5 9 -21 72 -30 72 -2 0 -4 -6 -4 -14z"/>
<path d="M517 944 c-9 -9 4 -35 14 -28 5 3 9 12 9 20 0 14 -12 19 -23 8z"/>
<path d="M1460 910 c0 -5 5 -10 11 -10 5 0 7 5 4 10 -3 6 -8 10 -11 10 -2 0
-4 -4 -4 -10z"/>
<path d="M475 900 c3 -5 11 -10 16 -10 6 0 7 5 4 10 -3 6 -11 10 -16 10 -6 0
-7 -4 -4 -10z"/>
<path d="M1875 900 c-4 -6 3 -10 14 -10 25 0 27 6 6 13 -8 4 -17 2 -20 -3z"/>
<path d="M2132 889 c2 -7 10 -15 17 -17 8 -3 12 1 9 9 -2 7 -10 15 -17 17 -8
3 -12 -1 -9 -9z"/>
<path d="M1970 881 c0 -6 5 -13 10 -16 6 -3 10 1 10 9 0 9 -4 16 -10 16 -5 0
-10 -4 -10 -9z"/>
<path d="M1885 757 c-5 -7 -11 -46 -13 -87 -1 -41 -5 -83 -8 -92 -3 -11 0 -18
9 -18 17 0 49 34 40 43 -3 4 -2 7 4 7 6 0 9 9 6 21 -4 15 -8 17 -14 8 -10 -17
-18 -9 -21 21 -2 12 3 25 10 27 6 3 12 -2 12 -11 0 -18 16 -21 26 -5 5 8 9 8
14 -1 5 -9 17 -3 41 18 32 29 33 30 14 48 -22 23 -65 26 -65 5 0 -11 -5 -9
-22 6 -17 16 -26 18 -33 10z"/>
<path d="M2135 750 c4 -11 2 -20 -4 -20 -6 0 -11 5 -11 10 0 6 -4 10 -10 10
-5 0 -10 -7 -10 -15 0 -14 -11 -19 -37 -16 -8 1 -13 -9 -13 -24 0 -14 6 -25
13 -25 8 -1 7 -5 -4 -13 -25 -19 -12 -41 13 -23 17 12 23 12 34 2 12 -13 86
-31 111 -27 6 1 14 -8 18 -19 3 -11 14 -20 23 -20 13 0 13 2 -3 13 -10 8 -15
19 -11 25 4 7 2 12 -3 12 -6 0 -11 9 -11 20 0 35 -28 78 -52 82 -17 2 -22 9
-21 26 2 14 -3 22 -13 22 -11 0 -13 -6 -9 -20z m41 -79 c-8 -13 -36 -15 -36
-3 0 4 5 13 12 20 14 14 34 0 24 -17z m21 -3 c-3 -8 -6 -5 -6 6 -1 11 2 17 5
13 3 -3 4 -12 1 -19z"/>
<path d="M535 740 c-3 -11 -3 -24 0 -30 12 -19 22 -10 23 20 1 34 -13 40 -23
10z"/>
<path d="M1810 742 c0 -12 19 -26 26 -19 2 2 -2 10 -11 17 -9 8 -15 8 -15 2z"/>
<path d="M765 721 c-6 -5 -26 -11 -45 -13 -42 -4 -38 -23 5 -23 29 0 80 -16
119 -37 15 -8 22 -6 32 7 17 23 12 31 -39 55 -46 22 -59 24 -72 11z"/>
<path d="M2369 714 c-11 -14 -10 -19 10 -36 19 -15 26 -16 32 -6 14 21 10 45
-7 52 -21 8 -20 8 -35 -10z"/>
<path d="M2454 679 c-16 -18 -16 -20 0 -38 23 -26 46 -16 46 19 0 35 -23 45
-46 19z"/>
<path d="M550 666 c0 -2 7 -12 16 -20 17 -18 39 -22 29 -6 -7 11 -45 33 -45
26z"/>
<path d="M0 590 c0 -32 11 -38 29 -16 9 11 8 18 -4 30 -22 22 -25 20 -25 -14z"/>
<path d="M833 608 c-5 -7 -13 -21 -16 -30 -4 -11 -17 -18 -32 -18 -29 0 -29
-2 -13 -47 10 -28 17 -33 45 -33 34 0 43 16 22 37 -21 21 -6 34 22 19 40 -21
90 -25 96 -9 5 12 7 12 14 2 6 -10 12 -9 28 5 24 21 27 49 9 63 -18 13 -43 11
-43 -4 0 -6 -4 -15 -9 -20 -5 -4 -6 -3 -2 4 8 14 -9 26 -43 29 -14 1 -35 5
-47 9 -12 4 -25 1 -31 -7z"/>
<path d="M1105 610 c-3 -5 3 -10 15 -10 12 0 18 5 15 10 -3 6 -10 10 -15 10
-5 0 -12 -4 -15 -10z"/>
<path d="M2441 594 c0 -11 3 -14 6 -6 3 7 2 16 -1 19 -3 4 -6 -2 -5 -13z"/>
<path d="M2492 580 c0 -14 2 -19 5 -12 2 6 2 18 0 25 -3 6 -5 1 -5 -13z"/>
<path d="M2397 563 c-4 -3 -7 -15 -7 -26 0 -13 5 -17 16 -13 8 3 24 1 35 -4
11 -6 19 -7 18 -3 -1 4 1 16 6 26 10 24 -2 34 -25 19 -12 -7 -20 -8 -20 -2 0
11 -13 13 -23 3z"/>
<path d="M59 539 c-7 -13 -12 -43 -12 -66 0 -28 -5 -43 -13 -43 -20 0 -27 -19
-14 -35 18 -21 35 -18 47 8 8 18 18 22 54 22 42 0 44 2 65 45 21 44 21 45 2
48 -11 2 -27 -3 -36 -11 -22 -19 -39 -12 -62 25 l-18 30 -13 -23z"/>
<path d="M2219 537 c6 -8 7 -18 3 -23 -4 -4 1 -2 11 5 23 18 22 31 -4 31 -17
0 -19 -3 -10 -13z"/>
<path d="M2269 534 c-17 -20 5 -44 23 -26 18 18 25 15 42 -20 13 -25 14 -33 4
-40 -21 -13 -37 -9 -55 12 -22 25 -63 27 -63 2 0 -9 11 -26 25 -36 14 -10 25
-27 25 -37 0 -11 10 -20 31 -24 17 -4 32 -5 33 -3 1 1 14 28 29 59 29 59 35
95 15 83 -6 -4 -17 1 -23 10 -19 26 -71 38 -86 20z"/>
<path d="M1960 505 c0 -8 4 -15 10 -15 5 0 7 7 4 15 -4 8 -8 15 -10 15 -2 0
-4 -7 -4 -15z"/>
<path d="M2465 500 c-3 -5 -1 -10 4 -10 6 0 11 5 11 10 0 6 -2 10 -4 10 -3 0
-8 -4 -11 -10z"/>
<path d="M2170 470 c0 -6 7 -10 15 -10 8 0 15 2 15 4 0 2 -7 6 -15 10 -8 3
-15 1 -15 -4z"/>
<path d="M1890 402 c0 -4 9 -13 20 -20 18 -11 20 -10 20 8 0 13 -7 20 -20 20
-11 0 -20 -3 -20 -8z"/>
<path d="M927 394 c-3 -4 -21 -7 -39 -8 -29 -2 -33 -5 -34 -31 0 -23 -4 -30
-19 -28 -21 2 -37 -15 -29 -29 14 -23 64 5 64 36 0 10 9 16 26 16 14 0 23 4
19 10 -3 6 3 10 14 10 12 0 21 -5 21 -11 0 -5 5 -7 10 -4 6 3 10 13 10 22 0 9
-3 13 -7 10 -3 -4 -11 -2 -18 3 -7 5 -15 7 -18 4z"/>
<path d="M780 375 c0 -8 5 -15 10 -15 6 0 10 7 10 15 0 8 -4 15 -10 15 -5 0
-10 -7 -10 -15z"/>
<path d="M2361 358 c-8 -18 -22 -38 -30 -45 -14 -11 -14 -12 1 -13 9 0 18 4
20 9 2 4 13 11 25 15 19 6 22 4 17 -11 -5 -15 -4 -16 5 -3 14 20 14 53 -1 68
-18 18 -22 15 -37 -20z"/>
<path d="M975 349 c-4 -6 -5 -12 -2 -15 2 -3 7 2 10 11 7 17 1 20 -8 4z"/>
<path d="M154 335 c4 -12 -1 -26 -15 -41 -14 -15 -20 -31 -16 -44 7 -26 -5
-33 -38 -20 -66 25 -81 -21 -18 -55 46 -25 58 -51 19 -41 -14 3 -26 2 -26 -2
0 -15 39 -45 62 -47 13 -2 35 -6 49 -10 24 -6 27 -3 31 24 3 17 1 31 -4 31 -5
0 -22 10 -38 22 -31 22 -41 62 -17 71 10 4 10 7 0 18 -7 7 -13 20 -13 28 1 13
3 13 14 -2 13 -17 46 -15 46 3 0 4 14 13 30 19 33 11 39 25 15 35 -9 3 -21 -4
-31 -19 -22 -34 -36 -31 -32 7 2 20 -2 33 -11 36 -10 3 -12 0 -7 -13z"/>
<path d="M2469 323 c-8 -9 -13 -24 -11 -35 2 -10 -2 -18 -7 -18 -6 0 -11 7
-11 15 0 8 -7 15 -16 15 -8 0 -14 -3 -12 -7 24 -50 34 -63 49 -63 23 0 33 -16
14 -24 -21 -8 -19 -23 5 -29 19 -5 20 0 20 73 0 82 -8 101 -31 73z"/>
<path d="M1520 300 c0 -5 7 -10 16 -10 8 0 12 5 9 10 -3 6 -10 10 -16 10 -5 0
-9 -4 -9 -10z"/>
<path d="M265 270 c3 -5 8 -10 11 -10 2 0 4 5 4 10 0 6 -5 10 -11 10 -5 0 -7
-4 -4 -10z"/>
<path d="M1092 268 c7 -19 35 -21 35 -3 0 8 -9 15 -19 15 -11 0 -18 -5 -16
-12z"/>
<path d="M774 238 c-4 -5 -1 -14 7 -18 14 -9 29 -4 29 10 0 13 -29 20 -36 8z"/>
<path d="M1045 240 c3 -5 8 -10 11 -10 2 0 4 5 4 10 0 6 -5 10 -11 10 -5 0 -7
-4 -4 -10z"/>
<path d="M1522 237 c18 -19 38 -22 38 -7 0 6 -4 10 -9 10 -5 0 -18 3 -28 7
-17 6 -17 6 -1 -10z"/>
<path d="M817 219 c-4 -16 -3 -18 9 -8 16 13 19 29 5 29 -5 0 -11 -9 -14 -21z"/>
<path d="M1002 215 c-6 -14 -16 -25 -21 -25 -5 0 -9 -16 -9 -36 0 -19 -3 -38
-7 -42 -4 -4 -36 -6 -71 -5 -35 0 -65 -3 -65 -8 -5 -28 -2 -34 16 -34 14 0 21
-8 25 -30 5 -27 9 -30 48 -33 33 -2 42 0 42 13 0 8 7 18 15 21 8 4 15 12 15
19 0 7 6 15 12 17 9 3 8 12 -5 31 -21 33 -22 47 -2 47 10 0 15 -7 13 -17 -4
-21 16 -22 54 -4 22 11 31 11 56 -2 28 -13 31 -13 35 3 3 11 -5 27 -19 39 -13
12 -24 25 -24 30 0 5 -16 9 -36 8 -23 -1 -41 5 -49 16 -11 15 -13 14 -23 -8z
m68 -35 c9 -5 19 -5 27 2 14 11 16 8 7 -15 -4 -12 -11 -13 -33 -6 -16 6 -32 9
-37 8 -5 -1 -18 -1 -29 0 -17 1 -18 3 -5 11 19 12 51 12 70 0z"/>
<path d="M1826 227 c5 -15 -101 -67 -136 -67 -24 0 -25 6 -5 27 20 19 11 30
-10 13 -12 -10 -15 -10 -15 4 0 19 -25 21 -37 4 -4 -7 -6 -21 -5 -30 2 -10 -3
-18 -11 -18 -8 0 -18 -12 -21 -26 -6 -22 -9 -24 -23 -12 -15 12 -16 10 -10
-14 8 -29 -9 -50 -19 -24 -4 11 -11 13 -23 7 -9 -6 -22 -6 -29 -2 -22 13 -119
3 -141 -15 -25 -22 -27 -34 -6 -34 8 0 24 -9 35 -20 20 -20 70 -28 70 -12 0 5
-10 8 -21 8 -12 -1 -24 4 -26 10 -7 20 104 39 137 23 13 -6 46 -3 51 5 4 4 13
-6 20 -23 l14 -31 103 0 c67 0 101 4 97 10 -4 6 -11 8 -16 5 -5 -4 -16 -2 -24
2 -13 7 -9 16 20 47 19 21 35 42 35 46 0 4 12 11 26 14 17 5 24 12 20 21 -3 8
-1 15 4 15 5 0 14 9 20 20 8 15 6 23 -12 40 -25 23 -70 28 -62 7z m-166 -58
c0 -5 -4 -9 -10 -9 -5 0 -10 7 -10 16 0 8 5 12 10 9 6 -3 10 -10 10 -16z"/>
<path d="M157 216 c-4 -9 3 -16 16 -20 27 -7 33 0 17 19 -16 19 -26 19 -33 1z"/>
<path d="M276 195 c-15 -8 -37 -15 -47 -15 -23 0 -24 -9 -3 -38 19 -27 48 -28
74 -2 19 19 28 70 13 70 -5 0 -21 -7 -37 -15z"/>
<path d="M2088 203 c7 -3 16 -2 19 1 4 3 -2 6 -13 5 -11 0 -14 -3 -6 -6z"/>
<path d="M2195 200 c-3 -5 -2 -10 4 -10 5 0 13 5 16 10 3 6 2 10 -4 10 -5 0
-13 -4 -16 -10z"/>
<path d="M2425 200 c-3 -5 -2 -10 4 -10 5 0 13 5 16 10 3 6 2 10 -4 10 -5 0
-13 -4 -16 -10z"/>
<path d="M1570 185 c12 -15 30 -12 30 6 0 5 -10 9 -21 9 -18 0 -19 -2 -9 -15z"/>
<path d="M2147 163 c-5 -13 -11 -22 -15 -22 -18 3 -22 -2 -11 -14 7 -7 27 -11
48 -9 l36 4 -30 -25 c-16 -14 -32 -22 -35 -18 -10 14 -39 20 -43 8 -3 -9 -8
-8 -20 2 -15 11 -17 11 -17 -2 0 -8 10 -21 22 -29 l22 -14 -22 -22 -22 -22
214 0 214 0 7 40 c4 25 3 46 -4 54 -8 10 -8 21 -1 41 10 27 10 28 -24 22 -28
-4 -34 -3 -29 9 3 8 0 14 -6 14 -7 0 -14 -7 -18 -16 -4 -12 -14 -14 -40 -9
-21 4 -40 2 -49 -6 -8 -6 -14 -8 -14 -3 0 5 -6 -2 -13 -15 -6 -14 -17 -26 -23
-28 -15 -5 -66 45 -59 57 9 15 -8 12 -32 -5 -20 -14 -22 -14 -25 7 l-4 23 -7
-22z m323 -28 c0 -8 -4 -15 -10 -15 -5 0 -7 7 -4 15 4 8 8 15 10 15 2 0 4 -7
4 -15z m-257 -65 c8 0 8 -3 0 -11 -9 -9 -16 -7 -30 7 -17 17 -17 18 0 11 10
-4 24 -7 30 -7z m219 -2 c-9 -9 -15 -9 -24 0 -9 9 -7 12 12 12 19 0 21 -3 12
-12z m-192 -48 c0 -5 -10 -10 -22 -10 -19 0 -20 2 -8 10 19 13 30 13 30 0z"/>
<path d="M2240 162 c0 -15 22 -30 36 -25 11 4 12 9 3 19 -12 15 -39 19 -39 6z"/>
<path d="M1481 141 c-7 -5 -22 -6 -32 -4 -12 4 -19 0 -19 -9 0 -19 32 -17 55
4 20 19 18 23 -4 9z"/>
<path d="M1185 108 c11 -6 23 -16 27 -22 10 -15 20 -2 12 18 -4 9 -17 16 -33
16 -24 -1 -25 -1 -6 -12z"/>
<path d="M2145 100 c-3 -5 -1 -10 4 -10 6 0 11 5 11 10 0 6 -2 10 -4 10 -3 0
-8 -4 -11 -10z"/>
<path d="M731 74 c0 -11 3 -14 6 -6 3 7 2 16 -1 19 -3 4 -6 -2 -5 -13z"/>
<path d="M1993 44 c3 -4 2 -15 -4 -25 -12 -24 -1 -25 17 -1 18 23 17 32 -3 32
-9 0 -13 -3 -10 -6z"/>
<path d="M2035 30 c-10 -11 -14 -20 -8 -20 5 0 18 9 28 20 10 11 14 20 8 20
-5 0 -18 -9 -28 -20z"/>
<path d="M318 29 c-25 -14 -22 -31 4 -27 13 2 24 11 26 21 4 19 -5 21 -30 6z"/>
<path d="M1450 21 c0 -6 5 -13 10 -16 6 -3 10 1 10 9 0 9 -4 16 -10 16 -5 0
-10 -4 -10 -9z"/>
<path d="M225 10 c-3 -5 3 -10 15 -10 12 0 18 5 15 10 -3 6 -10 10 -15 10 -5
0 -12 -4 -15 -10z"/>
<path d="M1340 10 c-13 -8 -12 -10 3 -10 9 0 17 5 17 10 0 12 -1 12 -20 0z"/>
<path d="M1555 10 c-3 -5 1 -10 10 -10 9 0 13 5 10 10 -3 6 -8 10 -10 10 -2 0
-7 -4 -10 -10z"/>
</g>
</svg>
